# xmcd
#
# Track frame offsets:
#	150
#	12633
#	30145
#	46299
#	57300
#	66127
#	77743
#	90600
#	108656
#	130583
#	147500
#	170152
#	187087
#	197982
#	212811
#	234346
#
# Disc length: 3432 seconds
#
# Revision: 0
# Processed by: cddbd v1.4PL0 Copyright (c) Steve Scherf et al.
# Submitted via: dBpowerAMP V4.0
#
DISCID=e60d6610
DTITLE=The Red Hots - Impeached
DYEAR=1900
DGENRE=Bluegrass
TTITLE0=Ida Red
TTITLE1=Possum Up A Gum Stump
TTITLE2=Boogermann
TTITLE3=Inch Along
TTITLE4=Sauly's Little Favorite
TTITLE5=Dolly
TTITLE6=Wolve's A' Howlin
TTITLE7=Jeb's Tune
TTITLE8=Galax Waltz
TTITLE9=Lost Indian
TTITLE10=Never Been So Lonely
TTITLE11=Indian War Whoop
TTITLE12=Hickory Jack
TTITLE13=Impeached
TTITLE14=Emory Bailey Tune
TTITLE15=White Face
EXTD=
EXTT0=
EXTT1=
EXTT2=
EXTT3=
EXTT4=
EXTT5=
EXTT6=
EXTT7=
EXTT8=
EXTT9=
EXTT10=
EXTT11=
EXTT12=
EXTT13=
EXTT14=
EXTT15=
PLAYORDER=
